Coordinates
version=1
nRows=16
nColumns=40
inDegrees=yes

Units are S.I. units (second, meters, Newtons, ...)
If the header above contains a line with 'inDegrees', this indicates whether rotational values are in degrees (yes) or radians (no).

endheader
time	pelvis_tilt	pelvis_list	pelvis_rotation	pelvis_tx	pelvis_ty	pelvis_tz	hip_flexion_r	hip_adduction_r	hip_rotation_r	knee_angle_r	knee_angle_r_beta	ankle_angle_r	subtalar_angle_r	mtp_angle_r	hip_flexion_l	hip_adduction_l	hip_rotation_l	knee_angle_l	knee_angle_l_beta	ankle_angle_l	subtalar_angle_l	mtp_angle_l	lumbar_extension	lumbar_bending	lumbar_rotation	arm_flex_r	arm_add_r	arm_rot_r	elbow_flex_r	pro_sup_r	wrist_flex_r	wrist_dev_r	arm_flex_l	arm_add_l	arm_rot_l	elbow_flex_l	pro_sup_l	wrist_flex_l	wrist_dev_l
      1.27000000	      1.39292681	     10.20493483	    -78.86154791	      0.21429021	      0.95732870	      0.87751879	     34.31051151	     -6.06945530	    -14.29686426	     -1.71548918	     -0.02994093	      0.31667629	      0.00000000	      0.00000000	     -9.22165422	      3.51018037	     13.40871378	     -0.09918089	     -0.00173103	     13.49715584	      0.00000000	      0.00000000	      1.40515075	     -3.49806639	    -13.05053222	      0.00000000	      0.00000000	      0.00000000	      0.00000000	      0.00000000	      0.00000000	      0.00000000	      0.00000000	      0.00000000	      0.00000000	      0.00000000	      0.00000000	      0.00000000	      0.00000000
      1.28000000	      1.22477813	     10.39726955	    -78.77048061	      0.21371748	      0.95437381	      0.89322751	     34.52178155	     -5.74860037	    -14.05681071	     -2.41756697	     -0.04219450	      0.46552157	      0.00000000	      0.00000000	     -9.75598902	      3.14106992	     13.60340019	      0.36340077	      0.00634254	     13.93458830	      0.00000000	      0.00000000	      1.64754615	     -3.31148115	    -13.12408361	      0.00000000	      0.00000000	      0.00000000	      0.00000000	      0.00000000	      0.00000000	      0.00000000	      0.00000000	      0.00000000	      0.00000000	      0.00000000	      0.00000000	      0.00000000	      0.00000000
      1.29000000	      0.96464343	     10.63039979	    -78.72698185	      0.21303727	      0.95168369	      0.90906738	     34.83965044	     -5.33251719	    -13.95334147	     -2.53494259	     -0.04424309	      0.45524160	     -0.00000000	      0.00000000	    -10.14637824	      2.70250917	     13.67382115	      0.97235819	      0.01697085	     14.12265793	      0.00000000	     -0.00000000	      1.96871634	     -3.02178343	    -13.13543896	      0.00000000	      0.00000000	      0.00000000	      0.00000000	      0.00000000	      0.00000000	      0.00000000	      0.00000000	      0.00000000	      0.00000000	      0.00000000	      0.00000000	     -0.00000000	      0.00000000
      1.30000000	      0.62721182	     10.78220746	    -78.72321435	      0.21226772	      0.94944363	      0.92511774	     35.09744661	     -4.81071258	    -13.95509782	     -2.17089756	     -0.03788931	      0.12745576	      0.00000000	      0.00000000	    -10.52241205	      2.18318812	     13.60953234	      1.73111944	      0.03021373	     14.20396217	      0.00000000	      0.00000000	      2.21936925	     -2.61739132	    -13.14200759	      0.00000000	      0.00000000	      0.00000000	      0.00000000	      0.00000000	      0.00000000	      0.00000000	      0.00000000	      0.00000000	      0.00000000	      0.00000000	      0.00000000	      0.00000000	      0.00000000
      1.31000000	      0.29822582	     10.94122052	    -78.76597414	      0.21146427	      0.94760716	      0.94121025	     35.40737705	     -4.29931592	    -13.81235370	     -1.33217778	     -0.02325089	     -0.34572628	      0.00000000	      0.00000000	    -10.78404554	      1.70522082	     13.59151026	      2.65931505	      0.04641380	     13.90940574	      0.00000000	      0.00000000	      2.46679066	     -2.20898785	    -13.13808204	     -0.00000000	      0.00000000	      0.00000000	      0.00000000	      0.00000000	      0.00000000	      0.00000000	     -0.00000000	      0.00000000	     -0.00000000	      0.00000000	      0.00000000	     -0.00000000	     -0.00000000
      1.32000000	     -0.24326512	     11.03651577	    -78.87782133	      0.21043993	      0.94618500	      0.95769214	     35.67334156	     -3.53197583	    -14.20141741	     -0.23353492	     -0.00407595	     -1.42413200	      0.00000000	      0.00000000	    -10.97286480	      1.01626854	     13.16947452	      3.75297339	      0.06550174	     13.64266576	      0.00000000	      0.00000000	      2.74007883	     -1.54662800	    -12.94896224	      0.00000000	      0.00000000	      0.00000000	      0.00000000	      0.00000000	      0.00000000	      0.00000000	      0.00000000	      0.00000000	      0.00000000	      0.00000000	      0.00000000	      0.00000000	      0.00000000
      1.33000000	     -0.74827435	     11.07993441	    -79.00628149	      0.20946864	      0.94527837	      0.97421739	     35.89218671	     -2.82354340	    -14.42974627	      1.13477217	      0.01980551	     -2.63728239	      0.00000000	      0.00000000	    -11.03901612	      0.39606404	     12.75109706	      5.14141866	      0.08973468	     12.95946573	      0.00000000	      0.00000000	      2.93002161	     -0.89751389	    -12.80648135	      0.00000000	      0.00000000	      0.00000000	      0.00000000	      0.00000000	      0.00000000	      0.00000000	      0.00000000	      0.00000000	      0.00000000	      0.00000000	      0.00000000	      0.00000000	      0.00000000
      1.34000000	     -1.27469794	     11.08664181	    -79.18101754	      0.20843108	      0.94483910	      0.99085938	     36.07446564	     -2.09984074	    -14.64351651	      2.66165521	      0.04645465	     -4.02568385	      0.00000000	      0.00000000	    -10.95098786	     -0.21677871	     12.19324704	      6.81415747	      0.11892948	     11.97182942	      0.00000000	      0.00000000	      3.08337258	     -0.21677982	    -12.59157289	      0.00000000	      0.00000000	      0.00000000	      0.00000000	      0.00000000	      0.00000000	      0.00000000	      0.00000000	      0.00000000	      0.00000000	      0.00000000	      0.00000000	      0.00000000	      0.00000000
      1.35000000	     -1.81166689	     11.03665475	    -79.40470446	      0.20743418	      0.94489574	      1.00761375	     36.17528543	     -1.37346221	    -14.80825422	      4.26287596	      0.07440122	     -5.48213791	      0.00000000	      0.00000000	    -10.68830550	     -0.80680480	     11.47219612	      8.84148240	      0.15431298	     10.64694354	      0.00000000	      0.00000000	      3.18631345	      0.52294908	    -12.33601686	      0.00000000	      0.00000000	      0.00000000	      0.00000000	      0.00000000	      0.00000000	      0.00000000	      0.00000000	      0.00000000	      0.00000000	      0.00000000	      0.00000000	      0.00000000	      0.00000000
      1.36000000	     -2.29799375	     10.87881588	    -79.65242350	      0.20643834	      0.94552453	      1.02435570	     36.12889153	     -0.70311389	    -14.81086805	      5.90290384	      0.10302511	     -6.74972204	      0.00000000	      0.00000000	    -10.28710459	     -1.32948793	     10.76351519	     11.24515317	      0.19626495	      8.95541646	      0.00000000	      0.00000000	      3.12708018	      1.21787294	    -12.04520696	      0.00000000	      0.00000000	      0.00000000	      0.00000000	      0.00000000	      0.00000000	      0.00000000	      0.00000000	      0.00000000	      0.00000000	      0.00000000	      0.00000000	      0.00000000	      0.00000000
      1.37000000	     -2.90791653	     10.75010401	    -79.94336111	      0.20530866	      0.94644966	      1.04123291	     36.05576555	      0.09401066	    -14.82388999	      7.46395996	      0.13027068	     -8.00067264	      0.00000000	      0.00000000	     -9.55536251	     -1.98878848	      9.66223229	     14.05092027	      0.24523482	      6.84705742	      0.00000000	      0.00000000	      3.15217119	      2.04879671	    -11.68213967	      0.00000000	      0.00000000	      0.00000000	      0.00000000	      0.00000000	      0.00000000	      0.00000000	      0.00000000	      0.00000000	      0.00000000	      0.00000000	      0.00000000	      0.00000000	      0.00000000
      1.38000000	     -3.39488975	     10.46666857	    -80.23302067	      0.20422947	      0.94795036	      1.05797192	     35.74698017	      0.77315431	    -14.66144801	      8.97843712	      0.15670329	     -8.79051397	     -0.00000000	      0.00000000	     -8.70846887	     -2.53679534	      8.71111720	     17.25925064	      0.30123075	      4.36901304	      0.00000000	     -0.00000000	      2.93752314	      2.75002125	    -11.31354303	     -0.00000000	     -0.00000000	      0.00000000	      0.00000000	      0.00000000	      0.00000000	      0.00000000	     -0.00000000	      0.00000000	      0.00000000	      0.00000000	      0.00000000	     -0.00000000	      0.00000000
      1.39000000	     -4.05685990	     10.26780422	    -80.54758606	      0.20299054	      0.94955068	      1.07464544	     35.49189600	      1.64002482	    -14.34403561	     10.42063496	      0.18187439	     -9.33960200	      0.00000000	      0.00000000	     -7.47979673	     -3.27792884	      7.66552090	     20.81723336	      0.36332926	      1.46374612	      0.00000000	      0.00000000	      2.85488126	      3.64121055	    -10.86983901	      0.00000000	      0.00000000	      0.00000000	      0.00000000	      0.00000000	      0.00000000	      0.00000000	      0.00000000	      0.00000000	      0.00000000	      0.00000000	      0.00000000	      0.00000000	      0.00000000
      1.40000000	     -4.61120306	      9.92423184	    -80.84828858	      0.20180684	      0.95158170	      1.09114530	     34.99341144	      2.41739664	    -13.99589474	     11.76954000	      0.20541722	     -9.43209574	      0.00000000	      0.00000000	     -6.17916177	     -3.95242764	      6.77899415	     24.63510499	      0.42996369	     -1.77176247	      0.00000000	      0.00000000	      2.55718118	      4.40999320	    -10.44774609	      0.00000000	      0.00000000	      0.00000000	      0.00000000	      0.00000000	      0.00000000	      0.00000000	      0.00000000	      0.00000000	      0.00000000	      0.00000000	      0.00000000	      0.00000000	      0.00000000
      1.41000000	     -5.16943582	      9.57495805	    -81.14556516	      0.20056462	      0.95377867	      1.10740393	     34.39980758	      3.23066231	    -13.57620026	     12.96691475	      0.22631536	     -9.19463324	      0.00000000	      0.00000000	     -4.67436084	     -4.64313689	      6.06989327	     28.64656835	      0.49997694	     -5.21679092	      0.00000000	      0.00000000	      2.22591028	      5.16390961	     -9.99734182	      0.00000000	      0.00000000	      0.00000000	      0.00000000	      0.00000000	      0.00000000	      0.00000000	      0.00000000	      0.00000000	      0.00000000	      0.00000000	      0.00000000	      0.00000000	      0.00000000
      1.42000000	     -5.71456846	      9.23234035	    -81.42061962	      0.19930491	      0.95608655	      1.12341498	     33.71855294	      4.05008339	    -13.13178352	     14.01356284	      0.24458281	     -8.67355277	      0.00000000	      0.00000000	     -3.00822682	     -5.32112960	      5.57717875	     32.73513914	      0.57133596	     -8.74175647	     -0.00000000	      0.00000000	      1.88417163	      5.87790440	     -9.53271127	     -0.00000000	     -0.00000000	     -0.00000000	      0.00000000	      0.00000000	      0.00000000	      0.00000000	      0.00000000	      0.00000000	     -0.00000000	      0.00000000	      0.00000000	      0.00000000	      0.00000000
